HIERARCHY
ROOT Hips
{
	OFFSET 0.000000 0.000000 0.000000
	CHANNELS 6 Xposition Yposition Zposition Zrotation Yrotation Xrotation 
	JOINT LHipJoint
	{
		OFFSET 0.000000 0.000000 0.000000
		CHANNELS 3 Zrotation Yrotation Xrotation
		JOINT LeftUpLeg
		{
			OFFSET 1.363060 -1.794630 0.839290
			CHANNELS 3 Zrotation Yrotation Xrotation
			JOINT LeftLeg
			{
				OFFSET 2.448110 -6.726130 0.000000
				CHANNELS 3 Zrotation Yrotation Xrotation
				JOINT LeftFoot
				{
					OFFSET 2.562200 -7.039590 0.000000
					CHANNELS 3 Zrotation Yrotation Xrotation
					JOINT LeftToeBase
					{
						OFFSET 0.157640 -0.433110 2.322550
						CHANNELS 3 Zrotation Yrotation Xrotation
						End Site
						{
							OFFSET 0.000000 0.000000 0.000000
						}
					}
				}
			}
		}
	}
	JOINT RHipJoint
	{
		OFFSET 0.000000 0.000000 0.000000
		CHANNELS 3 Zrotation Yrotation Xrotation
		JOINT RightUpLeg
		{
			OFFSET -1.305520 -1.794630 0.839290
			CHANNELS 3 Zrotation Yrotation Xrotation
			JOINT RightLeg
			{
				OFFSET -2.542530 -6.985550 0.000000
				CHANNELS 3 Zrotation Yrotation Xrotation
				JOINT RightFoot
				{
					OFFSET -2.568260 -7.056230 0.000000
					CHANNELS 3 Zrotation Yrotation Xrotation
					JOINT RightToeBase
					{
						OFFSET -0.164730 -0.452590 2.363150
						CHANNELS 3 Zrotation Yrotation Xrotation
						End Site
						{
							OFFSET 0.000000 0.000000 0.000000
						}
					}
				}
			}
		}
	}
}
MOTION
Frames: 13
Frame Time: 0.008333
-1.607957 16.776126 -1.165708 -152.682478 76.010834 -148.376672 -10.430002 1.480418 3.741741 -19.713842 0.784626 -25.004453 -2.517894 -0.818392 12.475707 1.565310 6.079097 -12.618375 179.360800 0.000000 -0.551400 9.282343 -5.153967 -2.618262 4.631080 -24.800107 -1.508438 0.732376 -2.975567 38.811264 0.318039 12.449476 18.614664 5.137700 -0.000000 -89.012699
-1.433744 16.760257 -1.218306 -155.019264 75.433939 -150.703996 -10.308044 1.592667 3.792780 -20.147014 0.218000 -24.572994 -2.525963 -0.708543 13.395464 1.542391 6.011477 -12.477860 179.385000 0.000001 -3.376300 9.566624 -5.016934 -2.648071 3.786728 -24.831639 -2.751659 0.438099 -3.073881 41.705007 0.135982 12.581159 20.639286 5.684200 0.000000 -87.920900
-1.264406 16.745931 -1.272612 -157.207035 74.835670 -152.848013 -10.190112 1.689337 3.832234 -20.594169 -0.324011 -24.128741 -2.537602 -0.609175 14.219052 1.513370 5.905357 -12.330589 179.411599 0.000000 -5.828700 9.820535 -4.854494 -2.663415 3.060604 -24.646860 -4.063097 0.170358 -3.163805 44.556206 -0.060673 12.074357 22.256084 5.860800 0.000000 -86.111600
-1.100158 16.733440 -1.329187 -159.175283 74.227461 -154.742714 -10.085411 1.768413 3.858427 -21.025204 -0.831405 -23.657985 -2.551447 -0.521666 14.930354 1.476917 5.749834 -12.190647 179.438701 0.000000 -7.888800 10.036769 -4.673091 -2.661091 2.470645 -24.233603 -5.432125 -0.073721 -3.251770 47.337633 -0.263737 10.914384 23.382123 5.604401 -0.000000 -83.703000
-0.941041 16.722996 -1.388440 -160.892641 73.625634 -156.361753 -9.998371 1.829388 3.869827 -21.422140 -1.298216 -23.144756 -2.566990 -0.447802 15.511325 1.433387 5.544275 -12.069119 179.464500 -0.000000 -9.573400 10.214574 -4.477408 -2.638016 2.014708 -23.587796 -6.848476 -0.298444 -3.340756 50.017882 -0.469380 9.164772 23.972857 4.930200 0.000000 -80.907200
-0.786889 16.714832 -1.450676 -162.341653 73.045771 -157.690544 -9.931832 1.872836 3.865132 -21.770839 -1.715677 -22.582066 -2.584049 -0.389003 15.950852 1.383869 5.291334 -11.977903 179.487200 0.000000 -10.930600 10.355047 -4.271574 -2.589290 1.687335 -22.705415 -8.302795 -0.507181 -3.430455 52.559635 -0.675583 6.953402 24.019365 3.922800 0.000000 -77.892600
-0.637325 16.709052 -1.516141 -163.523207 72.502049 -158.730028 -9.886631 1.900152 3.843859 -22.063391 -2.076909 -21.970120 -2.602564 -0.346405 16.242079 1.330487 4.999872 -11.926819 179.505500 0.000000 -12.018800 10.460812 -4.058936 -2.509454 1.476025 -21.585828 -9.785890 -0.701302 -3.518157 54.921873 -0.879872 4.457085 23.548660 2.716801 -0.000000 -74.795699
-0.491873 16.705688 -1.584942 -164.451239 72.004077 -159.493605 -9.862129 1.913452 3.806716 -22.297852 -2.377424 -21.314539 -2.622419 -0.320647 16.383056 1.275968 4.683072 -11.922992 179.518700 -0.000001 -12.905201 10.535125 -3.842172 -2.393223 1.361782 -20.235920 -11.289142 -0.880110 -3.599594 57.061849 -1.078001 1.874662 22.624072 1.464400 -0.000000 -71.737800
-0.349850 16.704646 -1.657069 -165.158998 71.555419 -160.011200 -9.855729 1.915500 3.756348 -22.479378 -2.619693 -20.623039 -2.643402 -0.312041 16.373056 1.223539 4.359654 -11.966278 179.526701 -0.000000 -13.630500 10.582031 -3.623188 -2.236766 1.316084 -18.673941 -12.804969 -1.041267 -3.670205 58.940659 -1.263041 -0.598158 21.333403 0.305300 0.000000 -68.778900
-0.210567 16.705785 -1.732408 -165.684438 71.152881 -160.317564 -9.864376 1.909427 3.696848 -22.615938 -2.809525 -19.906297 -2.665267 -0.320314 16.216116 1.175946 4.046556 -12.054337 179.529900 -0.000000 -14.250300 10.604892 -3.403333 -2.037797 1.308703 -16.928502 -14.326812 -1.181694 -3.725482 60.523621 -1.426469 -2.798972 19.782325 -0.658700 -0.000000 -65.999300
-0.073229 16.708838 -1.810731 -166.073572 70.785952 -160.454920 -9.884286 1.898623 3.634024 -22.719118 -2.959153 -19.173929 -2.687634 -0.344738 15.917703 1.135244 3.759502 -12.177386 179.529000 -0.000000 -14.796800 10.606888 -3.183303 -1.796564 1.306234 -15.039944 -15.850239 -1.298127 -3.761966 61.784886 -1.559165 -4.610941 18.075845 -1.373200 0.000000 -63.433000
0.062881 16.713543 -1.891685 -166.376645 70.436018 -160.473806 -9.911963 1.886310 3.573296 -22.800909 -3.082462 -18.428520 -2.710106 -0.383968 15.484276 1.101817 3.506956 -12.318932 179.525600 -0.000000 -15.285100 10.590621 -2.963464 -1.517473 1.276746 -13.060767 -17.366903 -1.387664 -3.777754 62.706456 -1.653785 -5.972681 16.310953 -1.830400 0.000001 -61.105700
0.198599 16.719628 -1.974994 -166.640610 70.081274 -160.412412 -9.943286 1.876131 3.526306 -22.872789 -3.206853 -17.684950 -2.732130 -0.436969 14.924839 1.075715 3.295657 -12.458945 179.521400 -0.000000 -15.748300 10.558183 -2.743660 -1.201064 1.199341 -11.038158 -18.884102 -1.448675 -3.770288 63.274192 -1.708613 -6.887286 14.595155 -2.064500 0.000001 -59.392500
